ToyLandingModel_AFO_states
version=1
nRows=4
nColumns=195
inDegrees=yes

# SIMM Motion File Header:
name ToyLandingModel_AFO_states
datacolumns 195
datarows 4
otherdata 1
range 0.36457933 0.36507346
endheader
time	platform_rx	platform_ry	platform_rz	platform_ty	pelvis_tilt	pelvis_list	pelvis_rotation	pelvis_tx	pelvis_ty	pelvis_tz	hip_flexion_r	hip_adduction_r	hip_rotation_r	knee_angle_r	ankle_angle_r	subtalar_angle_r	mtp_angle_r	hip_flexion_l	hip_adduction_l	hip_rotation_l	knee_angle_l	ankle_angle_l	subtalar_angle_l	mtp_angle_l	lumbar_extension	lumbar_bending	lumbar_rotation	platform_rx_u	platform_ry_u	platform_rz_u	platform_ty_u	pelvis_tilt_u	pelvis_list_u	pelvis_rotation_u	pelvis_tx_u	pelvis_ty_u	pelvis_tz_u	hip_flexion_r_u	hip_adduction_r_u	hip_rotation_r_u	knee_angle_r_u	ankle_angle_r_u	subtalar_angle_r_u	mtp_angle_r_u	hip_flexion_l_u	hip_adduction_l_u	hip_rotation_l_u	knee_angle_l_u	ankle_angle_l_u	subtalar_angle_l_u	mtp_angle_l_u	lumbar_extension_u	lumbar_bending_u	lumbar_rotation_u	glut_med1_r.activation	glut_med1_r.fiber_length	glut_med2_r.activation	glut_med2_r.fiber_length	glut_med3_r.activation	glut_med3_r.fiber_length	bifemlh_r.activation	bifemlh_r.fiber_length	bifemsh_r.activation	bifemsh_r.fiber_length	sar_r.activation	sar_r.fiber_length	add_mag2_r.activation	add_mag2_r.fiber_length	tfl_r.activation	tfl_r.fiber_length	pect_r.activation	pect_r.fiber_length	grac_r.activation	grac_r.fiber_length	glut_max1_r.activation	glut_max1_r.fiber_length	glut_max2_r.activation	glut_max2_r.fiber_length	glut_max3_r.activation	glut_max3_r.fiber_length	iliacus_r.activation	iliacus_r.fiber_length	psoas_r.activation	psoas_r.fiber_length	quad_fem_r.activation	quad_fem_r.fiber_length	gem_r.activation	gem_r.fiber_length	peri_r.activation	peri_r.fiber_length	rect_fem_r.activation	rect_fem_r.fiber_length	vas_int_r.activation	vas_int_r.fiber_length	med_gas_r.activation	med_gas_r.fiber_length	lat_gas_r.activation	lat_gas_r.fiber_length	soleus_r.activation	soleus_r.fiber_length	tib_post_r.activation	tib_post_r.fiber_length	flex_dig_r.activation	flex_dig_r.fiber_length	flex_hal_r.activation	flex_hal_r.fiber_length	tib_ant_r.activation	tib_ant_r.fiber_length	per_brev_r.activation	per_brev_r.fiber_length	per_long_r.activation	per_long_r.fiber_length	per_tert_r.activation	per_tert_r.fiber_length	ext_dig_r.activation	ext_dig_r.fiber_length	ext_hal_r.activation	ext_hal_r.fiber_length	glut_med1_l.activation	glut_med1_l.fiber_length	glut_med2_l.activation	glut_med2_l.fiber_length	glut_med3_l.activation	glut_med3_l.fiber_length	bifemlh_l.activation	bifemlh_l.fiber_length	bifemsh_l.activation	bifemsh_l.fiber_length	sar_l.activation	sar_l.fiber_length	add_mag2_l.activation	add_mag2_l.fiber_length	tfl_l.activation	tfl_l.fiber_length	pect_l.activation	pect_l.fiber_length	grac_l.activation	grac_l.fiber_length	glut_max1_l.activation	glut_max1_l.fiber_length	glut_max2_l.activation	glut_max2_l.fiber_length	glut_max3_l.activation	glut_max3_l.fiber_length	iliacus_l.activation	iliacus_l.fiber_length	psoas_l.activation	psoas_l.fiber_length	quad_fem_l.activation	quad_fem_l.fiber_length	gem_l.activation	gem_l.fiber_length	peri_l.activation	peri_l.fiber_length	rect_fem_l.activation	rect_fem_l.fiber_length	vas_int_l.activation	vas_int_l.fiber_length	med_gas_l.activation	med_gas_l.fiber_length	lat_gas_l.activation	lat_gas_l.fiber_length	soleus_l.activation	soleus_l.fiber_length	tib_post_l.activation	tib_post_l.fiber_length	flex_dig_l.activation	flex_dig_l.fiber_length	flex_hal_l.activation	flex_hal_l.fiber_length	tib_ant_l.activation	tib_ant_l.fiber_length	per_brev_l.activation	per_brev_l.fiber_length	per_long_l.activation	per_long_l.fiber_length	per_tert_l.activation	per_tert_l.fiber_length	ext_dig_l.activation	ext_dig_l.fiber_length	ext_hal_l.activation	ext_hal_l.fiber_length	ercspn_r.activation	ercspn_r.fiber_length	ercspn_l.activation	ercspn_l.fiber_length	intobl_r.activation	intobl_r.fiber_length	intobl_l.activation	intobl_l.fiber_length	extobl_r.activation	extobl_r.fiber_length	extobl_l.activation	extobl_l.fiber_length
      0.36457933	     20.00000000	      0.00000000	     -0.00000000	     -0.50000000	     -3.03631578	    -11.10813593	     -6.25469260	      0.03808109	      0.33876481	     -0.00311389	     22.42926802	      3.61760214	     -8.97156977	    -43.64605253	     16.57882497	     40.02914778	     -0.00000000	    -19.99999998	     10.00000028	      4.99999985	   -119.99999986	     11.49999977	     -0.03000064	     -0.00000000	    -14.74947485	     12.25174612	     10.18315411	     -0.00000000	      0.00000000	     -0.00000000	      0.00000000	    210.96292166	   -234.63950422	   -106.70388748	     -0.37241545	     -1.23741413	     -0.10820273	    -31.94738182	     95.26494567	      7.64808795	   -277.17176064	    -81.97106036	    866.45933853	      0.00000000	      0.00000000	     -0.00000000	     -0.00000000	     -0.00000000	      0.00000000	      0.00000000	     -0.00000000	   -392.99874435	    194.75498874	    202.61593971	      0.40146716	      0.05364409	      0.25721496	      0.08890148	      0.26224643	      0.06840280	      0.01032814	      0.09117464	      0.01033379	      0.15074433	      0.01032814	      0.44284782	      0.03001557	      0.07790539	      0.10410559	      0.10171573	      0.01150216	      0.05938615	      0.01032814	      0.29261685	      0.18310021	      0.09093302	      0.17912644	      0.09990941	      0.16892448	      0.11207215	      0.01299926	      0.09169352	      0.01273284	      0.08602976	      0.01032814	      0.04063375	      0.01034129	      0.02218438	      0.24449643	      0.02193902	      0.33094568	      0.11269259	      0.45070532	      0.09718704	      0.23340737	      0.08843555	      0.24314342	      0.06030264	      0.26809356	      0.08659248	      0.11274732	      0.03002903	      0.08284759	      0.02742068	      0.15595948	      0.03516855	      0.10747528	      0.06335517	      0.65438340	      0.06417981	      0.64111036	      0.05952372	      0.37923123	      0.08140099	      0.23878310	      0.08659234	      0.12295800	      0.08924807	      0.01032814	      0.04646253	      0.01032814	      0.07923892	      0.01032814	      0.06066436	      0.01032814	      0.02206191	      0.01032814	      0.12237692	      0.01032814	      0.45555326	      0.01032814	      0.05827937	      0.01032814	      0.13391299	      0.01032814	      0.07307140	      0.01032814	      0.24300637	      0.01032814	      0.06637377	      0.01032814	      0.06553721	      0.01032814	      0.05769327	      0.01032814	      0.11895430	      0.01032814	      0.11275718	      0.01032814	      0.04385349	      0.01032814	      0.02477566	      0.01032814	      0.02331122	      0.01032814	      0.18252115	      0.01032814	      0.13945783	      0.01032814	      0.06770303	      0.01032814	      0.04185718	      0.01032814	      0.08592159	      0.01032814	      0.03560770	      0.01032814	      0.03415686	      0.01032814	      0.04253820	      0.01032814	      0.07209170	      0.01032814	      0.05028839	      0.01032814	      0.05152889	      0.01032814	      0.07463236	      0.01032814	      0.08884387	      0.01032814	      0.09637865	      0.01527306	      0.11868673	      0.31028913	      0.13760138	      0.01032814	      0.08603169	      0.17940784	      0.09881653	      0.01032814	      0.11380501	      0.17907724	      0.13335765
      0.36474404	     20.00000000	      0.00000000	     -0.00000000	     -0.50000000	     -3.00154237	    -11.14672066	     -6.27219641	      0.03801978	      0.33856110	     -0.00313172	     22.42385708	      3.63327802	     -8.97025043	    -43.69159663	     16.56599304	     40.17149955	     -0.00000000	    -19.99999998	     10.00000028	      4.99999985	   -119.99999986	     11.49999977	     -0.03000064	     -0.00000000	    -14.81421917	     12.28371255	     10.21645089	     -0.00000000	      0.00000000	     -0.00000000	      0.00000000	    211.27574448	   -233.88228444	   -105.84130386	     -0.37209472	     -1.23618678	     -0.10834682	    -33.74040695	     95.08363588	      8.34690820	   -275.90827120	    -73.77520541	    861.96093125	      0.00000000	      0.00000000	     -0.00000000	     -0.00000000	     -0.00000000	      0.00000000	      0.00000000	     -0.00000000	   -393.16625984	    193.40408209	    201.69798296	      0.39997861	      0.05365620	      0.25644171	      0.08891082	      0.26148010	      0.06841092	      0.01032744	      0.09113854	      0.01033309	      0.15071984	      0.01032744	      0.44284928	      0.02997070	      0.07788949	      0.10467400	      0.10172004	      0.01149897	      0.05937731	      0.01032744	      0.29257093	      0.18254923	      0.09094045	      0.17859224	      0.09991477	      0.16843246	      0.11207101	      0.01304764	      0.09169036	      0.01283706	      0.08602487	      0.01032744	      0.04061083	      0.01034056	      0.02217419	      0.24402963	      0.02194628	      0.33042333	      0.11274247	      0.44930267	      0.09722567	      0.23262723	      0.08841697	      0.24231534	      0.06028057	      0.26719830	      0.08659126	      0.11246470	      0.03001195	      0.08266061	      0.02740320	      0.15551923	      0.03514741	      0.10721032	      0.06330183	      0.65405272	      0.06424078	      0.64067259	      0.05958453	      0.37905919	      0.08145313	      0.23853254	      0.08662648	      0.12272154	      0.08924249	      0.01032744	      0.04646254	      0.01032744	      0.07923893	      0.01032744	      0.06066437	      0.01032744	      0.02206193	      0.01032744	      0.12237693	      0.01032744	      0.45555327	      0.01032744	      0.05827938	      0.01032744	      0.13391299	      0.01032744	      0.07307141	      0.01032744	      0.24300639	      0.01032744	      0.06637378	      0.01032744	      0.06553722	      0.01032744	      0.05769328	      0.01032744	      0.11895431	      0.01032744	      0.11275719	      0.01032744	      0.04385350	      0.01032744	      0.02477566	      0.01032744	      0.02331125	      0.01032744	      0.18252115	      0.01032744	      0.13945784	      0.01032744	      0.06770310	      0.01032744	      0.04185728	      0.01032744	      0.08592162	      0.01032744	      0.03560772	      0.01032744	      0.03415700	      0.01032744	      0.04253836	      0.01032744	      0.07209174	      0.01032744	      0.05028843	      0.01032744	      0.05152896	      0.01032744	      0.07463238	      0.01032744	      0.08884395	      0.01032744	      0.09637872	      0.01567284	      0.11868988	      0.31006377	      0.13765450	      0.01032744	      0.08598924	      0.17887246	      0.09880962	      0.01032744	      0.11375406	      0.17854324	      0.13334898
      0.36490875	     20.00000000	      0.00000000	     -0.00000000	     -0.50000000	     -2.96671812	    -11.18518144	     -6.28955953	      0.03795851	      0.33835759	     -0.00314958	     22.41815887	      3.64892447	     -8.96882879	    -43.73696109	     16.55454478	     40.31306176	     -0.00000000	    -19.99999998	     10.00000028	      4.99999985	   -119.99999986	     11.49999977	     -0.03000064	     -0.00000000	    -14.87899060	     12.31545734	     10.24959776	     -0.00000000	      0.00000000	     -0.00000000	      0.00000000	    211.57868740	   -233.13134963	   -104.99403461	     -0.37179673	     -1.23497674	     -0.10846140	    -35.43354480	     94.90446648	      8.88869129	   -274.99137267	    -65.16736921	    856.87135148	      0.00000000	      0.00000000	     -0.00000000	     -0.00000000	     -0.00000000	      0.00000000	      0.00000000	     -0.00000000	   -393.32372013	    192.06007916	    200.79183998	      0.39849432	      0.05366813	      0.25566899	      0.08891998	      0.26071334	      0.06841890	      0.01032675	      0.09110232	      0.01033238	      0.15069552	      0.01032675	      0.44285112	      0.02992594	      0.07787329	      0.10524700	      0.10172442	      0.01149578	      0.05936862	      0.01032675	      0.29252514	      0.18200058	      0.09094769	      0.17806027	      0.09991991	      0.16794244	      0.11206955	      0.01312894	      0.09168744	      0.01297224	      0.08602016	      0.01032675	      0.04058790	      0.01033984	      0.02216400	      0.24356072	      0.02195351	      0.32990525	      0.11279232	      0.44790606	      0.09726404	      0.23185088	      0.08839864	      0.24149138	      0.06025866	      0.26632830	      0.08659015	      0.11218304	      0.02999489	      0.08247420	      0.02738573	      0.15508070	      0.03512628	      0.10694624	      0.06324851	      0.65370548	      0.06430158	      0.64022547	      0.05964529	      0.37885704	      0.08150439	      0.23826444	      0.08666064	      0.12247714	      0.08923708	      0.01032675	      0.04646256	      0.01032675	      0.07923894	      0.01032675	      0.06066438	      0.01032675	      0.02206196	      0.01032675	      0.12237694	      0.01032675	      0.45555329	      0.01032675	      0.05827940	      0.01032675	      0.13391299	      0.01032675	      0.07307141	      0.01032675	      0.24300641	      0.01032675	      0.06637380	      0.01032675	      0.06553724	      0.01032675	      0.05769330	      0.01032675	      0.11895431	      0.01032675	      0.11275721	      0.01032675	      0.04385350	      0.01032675	      0.02477567	      0.01032675	      0.02331128	      0.01032675	      0.18252115	      0.01032675	      0.13945784	      0.01032675	      0.06770317	      0.01032675	      0.04185737	      0.01032675	      0.08592164	      0.01032675	      0.03560775	      0.01032675	      0.03415714	      0.01032675	      0.04253852	      0.01032675	      0.07209179	      0.01032675	      0.05028846	      0.01032675	      0.05152902	      0.01032675	      0.07463240	      0.01032675	      0.08884403	      0.01032675	      0.09637878	      0.01608161	      0.11869317	      0.30983644	      0.13771930	      0.01032675	      0.08594678	      0.17833932	      0.09880239	      0.01032675	      0.11370312	      0.17801148	      0.13333987
      0.36507346	     20.00000000	      0.00000000	     -0.00000000	     -0.50000000	     -2.93184441	    -11.22351970	     -6.30678467	      0.03789730	      0.33815427	     -0.00316745	     22.41218953	      3.66454231	     -8.96733104	    -43.78220250	     16.54454719	     40.45373659	     -0.00000000	    -19.99999998	     10.00000028	      4.99999985	   -119.99999986	     11.49999977	     -0.03000064	     -0.00000000	    -14.94378804	     12.34698211	     10.28259718	     -0.00000000	      0.00000000	     -0.00000000	      0.00000000	    211.87796850	   -232.39768207	   -104.16747784	     -0.37153713	     -1.23376480	     -0.10855635	    -37.03462292	     94.73928419	      9.27114635	   -274.41160686	    -56.16487770	    851.18504605	      0.00000000	     -0.00000000	     -0.00000000	     -0.00000000	     -0.00000000	      0.00000000	      0.00000000	     -0.00000000	   -393.48629623	    190.73606738	    199.91128071	      0.39701504	      0.05367988	      0.25489703	      0.08892899	      0.25994622	      0.06842674	      0.01032605	      0.09106597	      0.01033168	      0.15067135	      0.01032605	      0.44285334	      0.02988128	      0.07785682	      0.10582520	      0.10172889	      0.01149259	      0.05936007	      0.01032605	      0.29247944	      0.18145426	      0.09095472	      0.17753054	      0.09992486	      0.16745442	      0.11206778	      0.01324049	      0.09168471	      0.01313570	      0.08601560	      0.01032605	      0.04056498	      0.01033912	      0.02215381	      0.24308941	      0.02196069	      0.32939201	      0.11284217	      0.44651637	      0.09730219	      0.23107829	      0.08838056	      0.24067152	      0.06023692	      0.26548406	      0.08658916	      0.11190233	      0.02997783	      0.08228834	      0.02736827	      0.15464389	      0.03510516	      0.10668304	      0.06319522	      0.65333959	      0.06436218	      0.63976727	      0.05970599	      0.37862294	      0.08155469	      0.23797789	      0.08669465	      0.12222451	      0.08923184	      0.01032605	      0.04646257	      0.01032605	      0.07923895	      0.01032605	      0.06066439	      0.01032605	      0.02206198	      0.01032605	      0.12237695	      0.01032605	      0.45555331	      0.01032605	      0.05827941	      0.01032605	      0.13391300	      0.01032605	      0.07307142	      0.01032605	      0.24300643	      0.01032605	      0.06637381	      0.01032605	      0.06553725	      0.01032605	      0.05769331	      0.01032605	      0.11895432	      0.01032605	      0.11275722	      0.01032605	      0.04385351	      0.01032605	      0.02477568	      0.01032605	      0.02331131	      0.01032605	      0.18252115	      0.01032605	      0.13945784	      0.01032605	      0.06770324	      0.01032605	      0.04185747	      0.01032605	      0.08592167	      0.01032605	      0.03560777	      0.01032605	      0.03415728	      0.01032605	      0.04253867	      0.01032605	      0.07209183	      0.01032605	      0.05028850	      0.01032605	      0.05152909	      0.01032605	      0.07463241	      0.01032605	      0.08884411	      0.01032605	      0.09637885	      0.01649878	      0.11869657	      0.30960718	      0.13777240	      0.01032605	      0.08590433	      0.17780841	      0.09879484	      0.01032605	      0.11365217	      0.17748195	      0.13333030
